<svg xmlns="http://www.w3.org/2000/svg" viewBox="0 0 74.4 72.57"><defs><style>.cls-1{fill:#e0d8d1;}</style></defs><title>github</title><g id="Lager_2" data-name="Lager 2"><g id="Lager_1-2" data-name="Lager 1"><path id="_Bana_" data-name="&lt;Bana&gt;" class="cls-1" d="M37.2,0C18.6,0,0,16.67,0,37.21a37.21,37.21,0,0,0,25.44,35.3c1.86.34,2.54-.81,2.54-1.79s0-3.82-.05-6.93C17.58,66.05,15.4,59.41,15.4,59.41,13.71,55.1,11.27,54,11.27,54c-3.37-2.31.26-2.26.26-2.26,3.73.26,5.7,3.83,5.7,3.83,3.32,5.69,8.7,4,10.82,3.09a7.93,7.93,0,0,1,2.37-5c-8.27-.94-17-4.13-17-18.39a14.37,14.37,0,0,1,3.83-10,13.36,13.36,0,0,1,.36-9.85s3.12-1,10.23,3.82a35.33,35.33,0,0,1,18.63,0c7.1-4.82,10.22-3.82,10.22-3.82a13.44,13.44,0,0,1,.37,9.85,14.37,14.37,0,0,1,3.83,10c0,14.29-8.71,17.44-17,18.36,1.33,1.15,2.52,3.41,2.52,6.88,0,5,0,9,0,10.21,0,1,.67,2.15,2.56,1.79A37.21,37.21,0,0,0,74.4,37.2C74.4,16.66,55.8,0,37.2,0Z"/></g></g></svg>