<svg xmlns="http://www.w3.org/2000/svg" viewBox="0 0 72.57 72.57"><defs><style>.cls-1{fill:#e0d8d1;}</style></defs><title>linkedin</title><g id="Lager_2" data-name="Lager 2"><g id="Lager_1-2" data-name="Lager 1"><path id="_Stansad_bana_" data-name="&lt;Stansad bana&gt;" class="cls-1" d="M60.39,0H12.19A12.23,12.23,0,0,0,0,12.19v48.2A12.22,12.22,0,0,0,12.19,72.57h48.2A12.21,12.21,0,0,0,72.57,60.39V12.19A12.22,12.22,0,0,0,60.39,0ZM27.21,59H18.14V27.21h9.07Zm0-40.82H18.14V9.07h9.07ZM59,59H49.89V40.82a4.54,4.54,0,0,0-9.07,0V59H31.75V27.21h9.07v5.64c1.87-2.58,4.73-5.64,7.94-5.64,5.64,0,10.2,5.08,10.2,11.34Z"/></g></g></svg>