<svg xmlns="http://www.w3.org/2000/svg" viewBox="0 0 66.82 72.57"><defs><style>.cls-1{fill:#e0d8d1;}</style></defs><title>treehouse</title><g id="Lager_2" data-name="Lager 2"><g id="Lager_1-2" data-name="Lager 1"><path class="cls-1" d="M58.94,13.24c-2.4-1.36-6.24.83-8.57,4.89l-4.23,7.34a9.27,9.27,0,0,0,.63,9.5l.12.18a55.66,55.66,0,0,0,5.45,6.32,4.89,4.89,0,0,1,1.12,2A4.8,4.8,0,0,1,44.22,46a4.74,4.74,0,0,1-.14-1.9,5.85,5.85,0,0,0-1.71-4.46c-1.51-1.68-4.6,1.5-5.6,4.77l0,.15c-1,3.27-1.63,6.13-1.44,6.4s.21.34.31.52a5.41,5.41,0,1,1-7.31-2.24l.36-.17A10.71,10.71,0,0,0,29.92,46c.49-1.63.9-2.94.9-2.94.05-.18.09-.35.14-.52L33.62,33,30.77,38.9c-.34-1.12-.9-1.16-2.12-.28-.74.53-2,1.57-2.56,2a10,10,0,0,0-2.55,3.31,4.68,4.68,0,0,1-1.22,1.49,4.76,4.76,0,1,1-4-8.35c1.2-.26,5.28-2.75,7.74-4.51a11.92,11.92,0,0,0,1.11-.89l6.57-5L28,29.77a6.78,6.78,0,0,0-1.3,0c-2.09.24-4.25.53-4.65,1.05a4.19,4.19,0,0,1-.86.82,4.26,4.26,0,1,1-5-6.91,4.18,4.18,0,0,1,2.6-.8c1.53,0,5.56.86,8.93.26l.86-.15a14.36,14.36,0,0,0,9-6.55l3.52-6.18c1.94-3.41,1.8-7.14-.32-8.34L37,.82a8,8,0,0,0-7,0L3.52,15.71a7.64,7.64,0,0,0-3.52,6v29.1a7.64,7.64,0,0,0,3.52,6L29.94,71.75a7.93,7.93,0,0,0,7,0L63.3,56.87a7.7,7.7,0,0,0,3.52-6V21.74a7.7,7.7,0,0,0-3.52-6Z"/></g></g></svg>